<svg xmlns="http://www.w3.org/2000/svg" viewBox="0 0 1080 1440"><defs><linearGradient id="bg" y2="1"><stop stop-color="#eee8e4"/><stop offset="1" stop-color="#a99e9a"/></linearGradient><linearGradient id="r" x2="1" y2="1"><stop stop-color="#ffedf2"/><stop offset=".5" stop-color="#d72657"/><stop offset="1" stop-color="#5d1029"/></linearGradient></defs><rect width="1080" height="1440" fill="url(#bg)"/><path d="M540 280 C430 330 390 450 440 560 C350 630 360 790 470 840 C420 970 500 1120 540 1200 C580 1120 660 970 610 840 C720 790 730 630 640 560 C690 450 650 330 540 280Z" fill="#f5f2ef" stroke="#fff" stroke-width="5"/><g fill="none" stroke="url(#r)" stroke-width="26"><path d="M540 430 C460 500 490 560 560 590 C630 620 610 700 530 720 C450 740 460 830 540 870 C620 910 590 1000 520 1040"/><path d="M620 470 C690 540 650 600 590 620 C530 640 550 710 630 750"/></g><circle cx="780" cy="290" r="110" fill="#fff" opacity=".25"/><text x="70" y="1330" fill="#3b3033" font-family="sans-serif" font-size="32" letter-spacing="12">ROSE SCULPTURE</text></svg>